HIERARCHY
ROOT Hips
{
	OFFSET 0.000000 0.000000 0.000000
	CHANNELS 6 Xposition Yposition Zposition Zrotation Yrotation Xrotation 
	JOINT LowerBack
	{
		OFFSET 0.000000 0.000000 0.000000
		CHANNELS 3 Zrotation Yrotation Xrotation
		JOINT Spine
		{
			OFFSET 0.028270 2.035590 -0.193380
			CHANNELS 3 Zrotation Yrotation Xrotation
			JOINT Spine1
			{
				OFFSET 0.056720 2.048850 -0.042750
				CHANNELS 3 Zrotation Yrotation Xrotation
				JOINT Neck
				{
					OFFSET 0.000000 0.000000 0.000000
					CHANNELS 3 Zrotation Yrotation Xrotation
					JOINT Neck1
					{
						OFFSET -0.054170 1.746240 0.172020
						CHANNELS 3 Zrotation Yrotation Xrotation
						JOINT Head
						{
							OFFSET 0.104070 1.761360 -0.123970
							CHANNELS 3 Zrotation Yrotation Xrotation
							End Site
							{
								OFFSET 0.000000 0.000000 0.000000
							}
						}
					}
				}
				JOINT LeftShoulder
				{
					OFFSET 0.000000 0.000000 0.000000
					CHANNELS 3 Zrotation Yrotation Xrotation
					JOINT LeftArm
					{
						OFFSET 3.362410 1.200890 -0.311210
						CHANNELS 3 Zrotation Yrotation Xrotation
						JOINT LeftForeArm
						{
							OFFSET 4.983000 -0.000000 -0.000000
							CHANNELS 3 Zrotation Yrotation Xrotation
							JOINT LeftHand
							{
								OFFSET 3.483560 -0.000000 -0.000000
								CHANNELS 3 Zrotation Yrotation Xrotation
								JOINT LeftFingerBase
								{
									OFFSET 0.000000 0.000000 0.000000
									CHANNELS 3 Zrotation Yrotation Xrotation
									JOINT LeftHandIndex1
									{
										OFFSET 0.715260 -0.000000 -0.000000
										CHANNELS 3 Zrotation Yrotation Xrotation
										End Site
										{
											OFFSET 0.000000 0.000000 0.000000
										}
									}
								}
								JOINT LThumb
								{
									OFFSET 0.000000 0.000000 0.000000
									CHANNELS 3 Zrotation Yrotation Xrotation
									End Site
									{
										OFFSET 0.000000 0.000000 0.000000
									}
								}
							}
						}
					}
				}
				JOINT RightShoulder
				{
					OFFSET 0.000000 0.000000 0.000000
					CHANNELS 3 Zrotation Yrotation Xrotation
					JOINT RightArm
					{
						OFFSET -3.136600 1.374050 -0.404650
						CHANNELS 3 Zrotation Yrotation Xrotation
						JOINT RightForeArm
						{
							OFFSET -5.241900 -0.000000 -0.000000
							CHANNELS 3 Zrotation Yrotation Xrotation
							JOINT RightHand
							{
								OFFSET -3.444170 -0.000000 -0.000000
								CHANNELS 3 Zrotation Yrotation Xrotation
								JOINT RightFingerBase
								{
									OFFSET 0.000000 0.000000 0.000000
									CHANNELS 3 Zrotation Yrotation Xrotation
									JOINT RightHandIndex1
									{
										OFFSET -0.622530 -0.000000 -0.000000
										CHANNELS 3 Zrotation Yrotation Xrotation
										End Site
										{
											OFFSET 0.000000 0.000000 0.000000
										}
									}
								}
								JOINT RThumb
								{
									OFFSET 0.000000 0.000000 0.000000
									CHANNELS 3 Zrotation Yrotation Xrotation
									End Site
									{
										OFFSET 0.000000 0.000000 0.000000
									}
								}
							}
						}
					}
				}
			}
		}
	}
}
}
MOTION
Frames: 11
Frame Time: 0.008333
3.591129 16.682486 -0.906857 -128.653674 83.590469 -128.439384 0.899844 1.903765 -0.332900 -0.172845 1.880644 -2.316683 -3.859032 1.847458 3.058452 8.055341 -13.943831 -11.175315 -0.535455 0.010682 -0.941972 0.000000 0.000000 0.000000 -5.036414 28.409442 2.447260 -86.806543 32.995048 -5.995265 -4.363253 -15.429952 -0.044894 -10.630522 16.997094 -1.607034 -0.036459 -0.186259 0.000000 0.000000 0.000000 0.000000 0.000000 0.000000 0.000000 5.528701 -7.913962 0.575801 33.123970 9.750367 8.315911 1.046747 56.266192 0.010691 4.392937 1.414627 0.060096 -0.017915 -0.140292 0.000000 0.000000 0.000000 0.000000 0.000000 0.000000 0.000000 
3.826858 16.625484 -0.968751 -127.812666 83.509228 -127.945953 0.805854 1.795420 -0.086220 -0.200657 1.786903 -2.284900 -3.926829 1.757295 3.001693 8.218544 -13.883008 -11.194813 -0.559829 0.009275 -0.949597 0.000000 0.000000 0.000000 -5.128497 28.346016 2.444580 -86.863091 32.878864 -4.687155 -4.335209 -16.253424 -0.045392 -11.415665 17.147185 -1.743254 -0.029157 -0.187117 0.000000 0.000000 0.000000 0.000000 0.000000 0.000000 0.000000 5.761554 -7.846103 0.581378 33.300917 9.701997 8.171185 1.058405 56.256400 0.010703 4.379825 1.461804 0.061699 -0.017123 -0.140715 0.000000 0.000000 0.000000 0.000000 0.000000 0.000000 0.000000 
4.059757 16.569285 -1.029728 -127.469546 83.447939 -127.910995 0.680986 1.660860 0.153019 -0.232681 1.668531 -2.258102 -3.994259 1.641718 2.933298 8.363935 -13.796998 -11.208927 -0.591814 0.007144 -0.955332 0.000000 0.000000 0.000000 -5.258712 28.253721 2.429931 -86.751761 32.632667 -3.213909 -4.299451 -17.080719 -0.045404 -12.158472 17.082291 -1.851568 -0.021954 -0.186399 0.000000 0.000000 0.000000 0.000000 0.000000 0.000000 0.000000 5.987901 -7.755722 0.580859 33.620138 9.618313 8.030478 1.073293 56.238665 0.010640 4.314904 1.521049 0.063106 -0.015238 -0.141367 0.000000 0.000000 0.000000 0.000000 0.000000 0.000000 0.000000 
4.289354 16.515486 -1.090382 -127.654278 83.396557 -128.348355 0.534482 1.506007 0.369990 -0.267406 1.530286 -2.238423 -4.060293 1.505383 2.855712 8.485232 -13.696861 -11.216854 -0.630979 0.004294 -0.958854 0.000000 0.000000 0.000000 -5.413651 28.122551 2.404085 -86.477892 32.234192 -1.651859 -4.254019 -17.866471 -0.044836 -12.760689 16.821428 -1.914974 -0.015489 -0.184059 0.000000 0.000000 0.000000 0.000000 0.000000 0.000000 0.000000 6.201220 -7.653585 0.573633 34.089530 9.478951 7.882381 1.091487 56.206292 0.010476 4.178563 1.595934 0.063820 -0.011976 -0.142379 0.000000 0.000000 0.000000 0.000000 0.000000 0.000000 0.000000 
4.515301 16.465647 -1.151561 -128.342953 83.344579 -129.219151 0.380497 1.338985 0.548868 -0.302398 1.378827 -2.228136 -4.123636 1.354852 2.771991 8.576119 -13.591961 -11.217993 -0.676764 0.000740 -0.959892 0.000000 0.000000 0.000000 -5.582204 27.942192 2.368895 -86.055051 31.656727 -0.123922 -4.201387 -18.550795 -0.043699 -13.155983 16.407191 -1.926272 -0.010452 -0.180062 -0.000000 0.000000 0.000000 0.000000 0.000000 0.000000 0.000000 6.393431 -7.547173 0.559384 34.714144 9.259350 7.715478 1.113097 56.153883 0.010189 3.956389 1.690452 0.063739 -0.007144 -0.143856 0.000000 0.000000 0.000000 0.000000 0.000000 0.000000 0.000000 
4.737267 16.421059 -1.213713 -129.534635 83.285634 -130.518936 0.223412 1.166951 0.684780 -0.337245 1.220862 -2.227330 -4.183820 1.196891 2.685348 8.635757 -13.494881 -11.212534 -0.728226 -0.003434 -0.958531 0.000000 0.000000 0.000000 -5.740225 27.705027 2.325987 -85.507052 30.888810 1.285263 -4.143137 -19.091752 -0.041963 -13.279482 15.848233 -1.877854 -0.007379 -0.174421 -0.000000 0.000000 0.000000 0.000000 0.000000 0.000000 0.000000 6.563285 -7.449388 0.538507 35.492418 8.946955 7.525853 1.138268 56.071920 0.009763 3.637489 1.811326 0.062467 -0.000640 -0.145875 0.000000 0.000000 0.000000 0.000000 0.000000 0.000000 0.000000 
4.955093 16.382766 -1.277579 -131.139638 83.212484 -132.156611 0.074217 0.995927 0.771513 -0.369731 1.061454 -2.236232 -4.238936 1.036548 2.601961 8.662992 -13.410597 -11.202557 -0.784607 -0.008144 -0.955319 0.000000 0.000000 0.000000 -5.854898 27.388772 2.288234 -84.878031 29.903649 2.352531 -4.101229 -19.518414 -0.040576 -13.298535 15.541072 -1.843335 -0.007116 -0.168289 -0.000000 0.000000 0.000000 0.000000 0.000000 0.000000 0.000000 6.706825 -7.357150 0.511015 36.418322 8.525915 7.306616 1.166975 55.953790 0.009196 3.222167 1.964311 0.059602 0.007441 -0.148482 0.000000 0.000000 0.000000 0.000000 0.000000 0.000000 0.000000 
5.168797 16.351452 -1.343568 -133.062697 83.119065 -134.041281 -0.057100 0.837092 0.812404 -0.399621 0.911261 -2.253532 -4.292674 0.884770 2.519282 8.661907 -13.355998 -11.185273 -0.844051 -0.013252 -0.949714 0.000000 0.000000 0.000000 -5.947016 27.033114 2.234920 -84.159614 28.748252 3.277902 -4.038294 -19.713995 -0.037774 -12.777058 14.814146 -1.686290 -0.008982 -0.159861 -0.000000 0.000000 0.000000 0.000000 0.000000 0.000000 0.000000 6.829524 -7.302577 0.479701 37.476234 8.006106 7.072823 1.200021 55.782393 0.008487 2.709867 2.157053 0.054644 0.017043 -0.151532 0.000000 0.000000 0.000000 0.000000 0.000000 0.000000 0.000000 
5.378495 16.327510 -1.412321 -135.133091 83.000990 -136.010552 -0.156211 0.694766 0.808215 -0.423925 0.773678 -2.278201 -4.343285 0.745025 2.442729 8.632846 -13.324986 -11.162282 -0.905798 -0.018674 -0.942208 0.000000 0.000000 0.000000 -5.997411 26.627716 2.178034 -83.393335 27.405706 3.853910 -3.976555 -19.725470 -0.034569 -11.921447 14.041285 -1.488830 -0.013481 -0.150219 -0.000000 0.000000 0.000000 0.000000 0.000000 0.000000 0.000000 6.926713 -7.271603 0.444883 38.653871 7.375666 6.817175 1.237724 55.550818 0.007671 2.122760 2.391003 0.046992 0.027737 -0.154875 0.000000 0.000000 0.000000 0.000000 0.000000 0.000000 0.000000 
5.584488 16.310977 -1.484173 -137.207071 82.855875 -137.933944 -0.212226 0.572385 0.766144 -0.440802 0.651677 -2.307881 -4.391008 0.620531 2.375185 8.580710 -13.320108 -11.134525 -0.968645 -0.024281 -0.933214 0.000000 0.000000 0.000000 -6.004580 26.185481 2.117648 -82.598821 25.890790 4.037059 -3.918506 -19.572371 -0.031097 -10.765336 13.232789 -1.264256 -0.020383 -0.139497 -0.000000 0.000000 0.000000 0.000000 0.000000 0.000000 0.000000 7.002228 -7.268268 0.408005 39.929511 6.648542 6.548864 1.280799 55.243643 0.006796 1.482650 2.666532 0.036045 0.039125 -0.158245 0.000000 0.000000 0.000000 0.000000 0.000000 0.000000 0.000000 
5.787187 16.301615 -1.559436 -139.156834 82.682125 -139.698291 -0.214974 0.470998 0.694719 -0.448352 0.545962 -2.340096 -4.435894 0.512258 2.318653 8.510253 -13.341972 -11.102650 -1.031316 -0.029941 -0.923056 0.000000 0.000000 0.000000 -5.972243 25.720617 2.053187 -81.788715 24.227941 3.812449 -3.866148 -19.296680 -0.027508 -9.369134 12.385882 -1.027074 -0.029222 -0.127817 -0.000000 0.000000 0.000000 0.000000 0.000000 0.000000 0.000000 7.059404 -7.295608 0.370602 41.279882 5.844728 6.278371 1.330255 54.843797 0.005935 0.817495 2.978392 0.021500 0.050766 -0.161291 0.000000 0.000000 0.000000 0.000000 0.000000 0.000000 0.000000 
